<?xml version="1.0" encoding="UTF-8"?>
<svg xmlns="http://www.w3.org/2000/svg" xmlns:xlink="http://www.w3.org/1999/xlink" width="131px" height="150px" viewBox="0 0 336 384" version="1.1">
<g id="surface1">
<path style=" stroke:none;fill-rule:nonzero;fill:rgb(45.490196%,75.294119%,98.823529%);fill-opacity:1;" d="M 336 60 L 336 96 C 336 129.148438 260.773438 156 168 156 C 75.226562 156 0 129.148438 0 96 L 0 60 C 0 26.851562 75.226562 0 168 0 C 260.773438 0 336 26.851562 336 60 Z M 294.898438 161.023438 C 310.5 155.476562 324.824219 148.351562 336 139.574219 L 336 216 C 336 249.148438 260.773438 276 168 276 C 75.226562 276 0 249.148438 0 216 L 0 139.574219 C 11.175781 148.425781 25.5 155.476562 41.101562 161.023438 C 74.773438 173.023438 119.625 180 168 180 C 216.375 180 261.226562 173.023438 294.898438 161.023438 Z M 0 259.574219 C 11.175781 268.425781 25.5 275.476562 41.101562 281.023438 C 74.773438 293.023438 119.625 300 168 300 C 216.375 300 261.226562 293.023438 294.898438 281.023438 C 310.5 275.476562 324.824219 268.351562 336 259.574219 L 336 324 C 336 357.148438 260.773438 384 168 384 C 75.226562 384 0 357.148438 0 324 Z M 0 259.574219 "/>
</g>
</svg>
