<?xml version="1.0" encoding="UTF-8"?>
<svg xmlns="http://www.w3.org/2000/svg" xmlns:xlink="http://www.w3.org/1999/xlink" width="131px" height="150px" viewBox="0 0 336 384" version="1.1">
<g id="surface1">
<path style=" stroke:none;fill-rule:nonzero;fill:rgb(100%,83.137256%,23.137255%);fill-opacity:1;" d="M 0 24 L 0 360 L 336 360 L 336 24 Z M 182.851562 286.050781 C 182.851562 318.75 163.648438 333.675781 135.675781 333.675781 C 110.398438 333.675781 95.773438 320.625 88.273438 304.800781 L 114 289.273438 C 118.949219 298.050781 123.449219 305.476562 134.324219 305.476562 C 144.675781 305.476562 151.273438 301.425781 151.273438 285.601562 L 151.273438 178.273438 L 182.851562 178.273438 Z M 257.550781 333.675781 C 228.226562 333.675781 209.25 319.726562 200.023438 301.425781 L 225.75 286.574219 C 232.5 297.601562 241.351562 305.773438 256.875 305.773438 C 269.925781 305.773438 278.324219 299.25 278.324219 290.175781 C 278.324219 279.375 269.773438 275.550781 255.300781 269.175781 L 247.425781 265.800781 C 224.625 256.125 209.550781 243.898438 209.550781 218.175781 C 209.550781 194.476562 227.625 176.476562 255.75 176.476562 C 275.851562 176.476562 290.25 183.449219 300.601562 201.75 L 276 217.5 C 270.601562 207.824219 264.75 204 255.675781 204 C 246.449219 204 240.601562 209.851562 240.601562 217.5 C 240.601562 226.949219 246.449219 230.773438 260.023438 236.699219 L 267.898438 240.074219 C 294.75 251.550781 309.824219 263.324219 309.824219 289.726562 C 309.824219 318.074219 287.476562 333.675781 257.550781 333.675781 Z M 257.550781 333.675781 "/>
</g>
</svg>
