<?xml version="1.0" encoding="UTF-8"?>
<svg xmlns="http://www.w3.org/2000/svg" xmlns:xlink="http://www.w3.org/1999/xlink" width="131px" height="150px" viewBox="0 0 336 384" version="1.1">
<g id="surface1">
<path style=" stroke:none;fill-rule:nonzero;fill:rgb(100%,83.137256%,23.137255%);fill-opacity:1;" d="M 329.851562 150.375 C 324.074219 127.199219 313.125 109.726562 289.800781 109.726562 L 259.726562 109.726562 L 259.726562 145.273438 C 259.726562 172.875 236.324219 196.125 209.625 196.125 L 129.523438 196.125 C 107.625 196.125 89.476562 214.875 89.476562 236.851562 L 89.476562 313.199219 C 89.476562 334.949219 108.375 347.699219 129.523438 353.925781 C 154.875 361.351562 179.25 362.699219 209.625 353.925781 C 229.800781 348.074219 249.675781 336.300781 249.675781 313.199219 L 249.675781 282.675781 L 169.648438 282.675781 L 169.648438 272.476562 L 289.800781 272.476562 C 313.125 272.476562 321.75 256.199219 329.851562 231.824219 C 338.25 206.699219 337.875 182.550781 329.851562 150.375 Z M 214.648438 303 C 222.976562 303 229.726562 309.824219 229.726562 318.226562 C 229.726562 326.699219 222.976562 333.523438 214.648438 333.523438 C 206.398438 333.523438 199.574219 326.625 199.574219 318.226562 C 199.648438 309.75 206.398438 303 214.648438 303 Z M 125.851562 186.074219 L 205.949219 186.074219 C 228.226562 186.074219 246 167.699219 246 145.351562 L 246 68.925781 C 246 47.175781 227.699219 30.898438 205.949219 27.226562 C 179.101562 22.800781 149.925781 23.023438 125.851562 27.300781 C 91.949219 33.300781 85.800781 45.824219 85.800781 69 L 85.800781 99.523438 L 165.976562 99.523438 L 165.976562 109.726562 L 55.726562 109.726562 C 32.398438 109.726562 12 123.75 5.625 150.375 C -1.726562 180.898438 -2.023438 199.949219 5.625 231.824219 C 11.324219 255.523438 24.898438 272.476562 48.226562 272.476562 L 75.75 272.476562 L 75.75 235.875 C 75.75 209.398438 98.625 186.074219 125.851562 186.074219 Z M 120.824219 79.125 C 112.5 79.125 105.75 72.300781 105.75 63.898438 C 105.824219 55.425781 112.5 48.601562 120.824219 48.601562 C 129.074219 48.601562 135.898438 55.5 135.898438 63.898438 C 135.898438 72.300781 129.148438 79.125 120.824219 79.125 Z M 120.824219 79.125 "/>
</g>
</svg>
